HIERARCHY
ROOT Hips
{
	OFFSET -3.958830 18.904000 13.208200
	CHANNELS 6 Xposition Yposition Zposition Zrotation Yrotation Xrotation 
	JOINT LHipJoint
	{
		OFFSET 0.000000 0.000000 0.000000
		CHANNELS 3 Zrotation Yrotation Xrotation
		JOINT LeftUpLeg
		{
			OFFSET 1.800000 -1.400000 0.085000
			CHANNELS 3 Zrotation Yrotation Xrotation
			JOINT LeftLeg
			{
				OFFSET 2.215000 -6.000000 0.000000
				CHANNELS 3 Zrotation Yrotation Xrotation
				JOINT LeftFoot
				{
					OFFSET 2.500000 -6.900000 0.000000
					CHANNELS 3 Zrotation Yrotation Xrotation
					JOINT LeftToeBase
					{
						OFFSET 0.200000 -0.500000 1.950000
						CHANNELS 3 Zrotation Yrotation Xrotation
						End Site
						{
							OFFSET 0.000000 0.000000 0.000000
						}
					}
				}
			}
		}
	}
	JOINT RHipJoint
	{
		OFFSET 0.000000 0.000000 0.000000
		CHANNELS 3 Zrotation Yrotation Xrotation
		JOINT RightUpLeg
		{
			OFFSET -1.800000 -1.400000 0.085000
			CHANNELS 3 Zrotation Yrotation Xrotation
			JOINT RightLeg
			{
				OFFSET -2.215000 -6.000000 0.000000
				CHANNELS 3 Zrotation Yrotation Xrotation
				JOINT RightFoot
				{
					OFFSET -2.500000 -6.900000 0.000000
					CHANNELS 3 Zrotation Yrotation Xrotation
					JOINT RightToeBase
					{
						OFFSET -0.200000 -0.500000 1.950000
						CHANNELS 3 Zrotation Yrotation Xrotation
						End Site
						{
							OFFSET 0.000000 0.000000 0.000000
						}
					}
				}
			}
		}
	}
	JOINT LowerBack
	{
		OFFSET 0.000000 0.000000 0.000000
		CHANNELS 3 Zrotation Yrotation Xrotation
		JOINT Spine
		{
			OFFSET -0.087000 1.940000 -0.288900
			CHANNELS 3 Zrotation Yrotation Xrotation
			JOINT Spine1
			{
				OFFSET 0.000000 1.950000 0.060000
				CHANNELS 3 Zrotation Yrotation Xrotation
				JOINT Neck
				{
					OFFSET 0.000000 0.000000 0.000000
					CHANNELS 3 Zrotation Yrotation Xrotation
					JOINT Neck1
					{
						OFFSET 0.000000 1.600000 0.340000
						CHANNELS 3 Zrotation Yrotation Xrotation
						JOINT Head
						{
							OFFSET 0.000000 1.667000 -0.240000
							CHANNELS 3 Zrotation Yrotation Xrotation
							End Site
							{
								OFFSET 0.000000 0.000000 0.000000
							}
						}
					}
				}
				JOINT LeftShoulder
				{
					OFFSET 0.000000 0.000000 0.000000
					CHANNELS 3 Zrotation Yrotation Xrotation
					JOINT LeftArm
					{
						OFFSET 2.700000 1.550000 -0.730000
						CHANNELS 3 Zrotation Yrotation Xrotation
						JOINT LeftForeArm
						{
							OFFSET 5.450000 0.000000 0.000000
							CHANNELS 3 Zrotation Yrotation Xrotation
							JOINT LeftHand
							{
								OFFSET 3.450000 0.000000 0.000000
								CHANNELS 3 Zrotation Yrotation Xrotation
								JOINT LeftHandIndex1
								{
									OFFSET 0.750000 0.000000 0.000000
									CHANNELS 3 Zrotation Yrotation Xrotation
									End Site
									{
										OFFSET 0.000000 0.000000 0.000000
									}
								}
							}
						}
					}
				}
				JOINT RightShoulder
				{
					OFFSET 0.000000 0.000000 0.000000
					CHANNELS 3 Zrotation Yrotation Xrotation
					JOINT RightArm
					{
						OFFSET -2.700000 1.550000 -0.730000
						CHANNELS 3 Zrotation Yrotation Xrotation
						JOINT RightForeArm
						{
							OFFSET -5.450000 0.000000 0.000000
							CHANNELS 3 Zrotation Yrotation Xrotation
							JOINT RightHand
							{
								OFFSET -3.450000 0.000000 0.000000
								CHANNELS 3 Zrotation Yrotation Xrotation
								JOINT RightHandIndex1
								{
									OFFSET -0.750000 0.000000 0.000000
									CHANNELS 3 Zrotation Yrotation Xrotation
									End Site
									{
										OFFSET 0.000000 0.000000 0.000000
									}
								}
							}
						}
					}
				}
			}
		}
	}
}
MOTION
Frames: 8
Frame Time: 0.016667
0.104850 16.255160 -1.413740 -0.938918 37.335513 1.860186 -15.076798 11.935461 2.958581 4.885948 -2.879664 -19.104963 -5.971235 2.992806 1.579020 -1.051955 3.564994 3.633776 0.540030 0.289400 0.417870 18.449663 -11.536823 2.417196 -10.371472 0.358719 -5.106792 4.230254 -4.562129 8.621486 -0.111340 -4.845032 2.630341 0.630500 0.865760 0.492790 -4.850698 1.135799 -6.912674 13.429024 5.582385 2.751446 -4.836195 5.477230 12.873426 0.742044 -1.906243 -7.310727 -2.290710 3.679817 21.059132 -6.538590 3.597390 1.242850 4.146054 -5.788745 -0.081279 -20.966635 -33.780417 7.200369 64.008796 -40.821797 -25.540675 -4.414498 3.071180 -0.170020 0.864060 -0.502570 0.268020 -5.246909 8.954227 4.004212 25.186410 25.834408 0.892097 -75.628185 38.733647 -32.801205 1.496538 -2.177082 -0.350680 0.239570 -0.024600 -0.097260 
0.111530 16.253810 -1.414220 -0.911537 37.875854 1.981149 -15.081108 11.915935 2.974095 4.829148 -2.895738 -19.158476 -6.168691 2.990689 1.372479 -1.039162 3.562621 3.637375 0.541100 0.292830 0.415160 18.448608 -11.526592 2.415256 -10.350999 0.357445 -5.034522 4.264028 -4.566575 8.575649 -0.115863 -4.847265 2.635191 0.627190 0.864530 0.489070 -4.855883 1.137443 -6.920067 13.344692 5.614232 2.741894 -4.840246 5.534993 12.701129 0.726624 -1.998897 -7.243877 -2.451806 3.827765 21.119590 -6.441360 3.657660 1.247270 3.782774 -5.871039 -0.052634 -19.968236 -33.172851 6.754281 63.440450 -41.099454 -25.199198 -4.404098 3.069079 -0.168590 0.859170 -0.499470 0.273370 -4.870807 9.121915 3.882718 24.048696 25.823233 0.752282 -74.567777 38.645569 -31.948635 1.505675 -2.173365 -0.348000 0.239800 -0.030670 -0.093130 
0.116540 16.252400 -1.415020 -0.880103 38.351917 2.084054 -15.085676 11.900219 2.987884 4.772051 -2.912103 -19.210451 -6.338520 2.988582 1.200598 -1.023223 3.551082 3.641215 0.548100 0.303950 0.417920 18.447172 -11.514702 2.415231 -10.325360 0.348865 -4.935362 4.283678 -4.558960 8.494753 -0.121094 -4.847031 2.640234 0.627720 0.855060 0.482190 -4.858218 1.131226 -6.927972 13.244417 5.645728 2.771981 -4.815572 5.595835 12.469960 0.699474 -2.080965 -7.130603 -2.602845 3.932429 21.208525 -6.324090 3.699040 1.243600 3.511738 -5.853603 -0.081525 -18.916046 -32.678518 6.403537 62.423926 -41.653639 -24.734429 -4.384435 3.070221 -0.169200 0.849650 -0.493910 0.278440 -4.575321 9.179729 3.712648 22.726425 25.763025 0.645424 -72.996201 38.733626 -30.846863 1.517167 -2.169375 -0.341980 0.236070 -0.043110 -0.089450 
0.121180 16.250720 -1.415940 -0.926397 38.751553 2.154162 -15.088226 11.885334 2.999914 4.760161 -2.925111 -19.284703 -6.462567 2.980355 1.023258 -1.010314 3.539734 3.645964 0.550230 0.311770 0.413940 18.447996 -11.502026 2.417180 -10.243935 0.335654 -4.854888 4.293327 -4.542795 8.391151 -0.122553 -4.844556 2.648520 0.628470 0.850540 0.472400 -4.866140 1.124863 -6.937393 13.265246 5.647551 2.792236 -4.832205 5.628764 12.202189 0.659203 -2.175885 -7.010057 -2.777324 4.048579 21.287403 -6.182020 3.721790 1.300240 3.385735 -5.776835 -0.114702 -17.898866 -32.203792 6.122264 61.126441 -42.324774 -24.178458 -4.366506 3.071063 -0.171810 0.843130 -0.493090 0.283420 -4.405858 9.166677 3.513835 21.364521 25.716469 0.597758 -71.112456 38.987279 -29.651247 1.524310 -2.161016 -0.339630 0.235650 -0.051850 -0.085000 
0.124760 16.250300 -1.417620 -0.998745 39.083822 2.186814 -15.089737 11.872338 3.010479 4.774682 -2.931758 -19.343221 -6.577960 2.972857 0.856234 -0.997291 3.531971 3.648292 0.551810 0.317120 0.412720 18.449514 -11.489837 2.420232 -10.149916 0.321258 -4.774237 4.293377 -4.526605 8.278999 -0.127144 -4.840296 2.653059 0.626400 0.844190 0.467490 -4.876416 1.118372 -6.948307 13.360474 5.644458 2.846718 -4.880580 5.659373 11.924389 0.631068 -2.272862 -6.880025 -2.958093 4.126424 21.384732 -6.124740 3.755010 1.314980 3.291496 -5.660827 -0.186478 -16.846260 -31.796528 5.878980 59.645927 -42.991439 -23.523290 -4.350317 3.076248 -0.171900 0.835730 -0.488530 0.286690 -4.299862 9.107559 3.329288 20.029921 25.601053 0.554248 -69.216310 39.472077 -28.574583 1.528778 -2.146929 -0.335360 0.232830 -0.058960 -0.081310 
0.127050 16.249960 -1.419400 -1.099482 39.356347 2.223365 -15.089003 11.859104 3.019732 4.791365 -2.943879 -19.441685 -6.631804 2.956391 0.715476 -0.984311 3.518685 3.653380 0.553740 0.325690 0.409920 18.452706 -11.483109 2.422820 -10.035465 0.310769 -4.751143 4.290280 -4.510105 8.211805 -0.129915 -4.836166 2.656839 0.626550 0.841860 0.465650 -4.892374 1.123277 -6.957635 13.501469 5.617292 2.879926 -4.955661 5.651836 11.642750 0.593594 -2.355351 -6.749662 -3.106222 4.257826 21.437662 -6.080120 3.843020 1.380410 3.377213 -5.455489 -0.253587 -15.955284 -31.409815 5.716338 58.120178 -43.568943 -22.818681 -4.340412 3.089908 -0.177410 0.833420 -0.485080 0.291490 -4.349584 8.948236 3.117530 18.945143 25.642681 0.621489 -67.439966 39.755608 -27.530540 1.535898 -2.144800 -0.329330 0.229240 -0.066700 -0.074990 
0.128280 16.250310 -1.421460 -1.221937 39.555687 2.215434 -15.085934 11.844868 3.026534 4.827585 -2.948112 -19.505682 -6.669609 2.938954 0.573958 -0.974391 3.508952 3.657424 0.556780 0.334210 0.410680 18.457768 -11.480030 2.427477 -9.918888 0.298099 -4.717214 4.301620 -4.500133 8.143263 -0.134302 -4.833227 2.659921 0.627330 0.839710 0.464670 -4.915295 1.138986 -6.969583 13.720887 5.568493 2.958713 -5.100486 5.630992 11.395100 0.568359 -2.445838 -6.633370 -3.261281 4.431186 21.477858 -6.052270 3.967930 1.376240 3.523506 -5.243194 -0.316632 -15.058694 -30.980752 5.537143 56.706617 -44.024101 -22.132918 -4.333733 3.102810 -0.180080 0.831490 -0.480210 0.295190 -4.481969 8.790028 2.920382 17.959003 25.730831 0.695135 -65.839095 40.020990 -26.624647 1.541634 -2.141622 -0.324600 0.228030 -0.073890 -0.070500 
0.128360 16.250160 -1.423040 -1.290623 39.720664 2.259932 -15.083614 11.829688 3.034934 4.831881 -2.958264 -19.584346 -6.708542 2.919426 0.429983 -0.967349 3.500238 3.661834 0.560090 0.344000 0.411020 18.461581 -11.477569 2.430121 -9.863969 0.297127 -4.723940 4.365786 -4.504685 8.110760 -0.136784 -4.834481 2.661805 0.630550 0.840240 0.464360 -4.930957 1.156258 -6.978405 13.827797 5.561606 3.007943 -5.149304 5.631088 11.146690 0.528141 -2.500093 -6.506792 -3.349747 4.571372 21.485991 -6.064120 4.086420 1.381140 3.806504 -4.957571 -0.406477 -14.371800 -30.708284 5.487775 55.241914 -44.376080 -21.408256 -4.333025 3.119421 -0.185240 0.833440 -0.477470 0.298850 -4.712698 8.552215 2.713709 17.123089 25.872535 0.838153 -64.348644 40.309787 -25.819650 1.543518 -2.140477 -0.320580 0.228500 -0.079930 -0.066320 
